<svg xmlns="http://www.w3.org/2000/svg" xmlns:xlink="http://www.w3.org/1999/xlink" width="1920" zoomAndPan="magnify" viewBox="0 0 1440 809.999993" height="1080" preserveAspectRatio="xMidYMid meet" version="1.0"><defs><g/><clipPath id="fc6840a3d1"><path d="M 405 465 L 555 465 L 555 615 L 405 615 Z M 405 465 " clip-rule="nonzero"/></clipPath><clipPath id="68396e390d"><path d="M 443.25 465 L 516.75 465 C 537.875 465 555 482.125 555 503.25 L 555 576.75 C 555 597.875 537.875 615 516.75 615 L 443.25 615 C 422.125 615 405 597.875 405 576.75 L 405 503.25 C 405 482.125 422.125 465 443.25 465 " clip-rule="nonzero"/></clipPath></defs><g clip-path="url(#fc6840a3d1)"><g clip-path="url(#68396e390d)"><path fill="#a35c32" d="M 405 465 L 555 465 L 555 615 L 405 615 Z M 405 465 " fill-opacity="1" fill-rule="nonzero"/></g></g><g fill="#ffffff" fill-opacity="1"><g transform="translate(443.713838, 577.640908)"><g><path d="M 69.125 0 L 54.03125 0 L 48.0625 -15.703125 L 20.40625 -15.703125 L 14.71875 0 L 0 0 L 26.859375 -68.9375 L 41.625 -68.9375 Z M 43.546875 -27.28125 L 34.09375 -52.859375 L 24.734375 -27.28125 Z M 43.546875 -27.28125 "/></g></g></g></svg>