<svg xmlns="http://www.w3.org/2000/svg" xmlns:xlink="http://www.w3.org/1999/xlink" width="1920" zoomAndPan="magnify" viewBox="0 0 1440 809.999993" height="1080" preserveAspectRatio="xMidYMid meet" version="1.0"><defs><g/><clipPath id="6bb8e0b02b"><path d="M 735 465 L 885 465 L 885 615 L 735 615 Z M 735 465 " clip-rule="nonzero"/></clipPath><clipPath id="e79b2be9f8"><path d="M 773.25 465 L 846.75 465 C 867.875 465 885 482.125 885 503.25 L 885 576.75 C 885 597.875 867.875 615 846.75 615 L 773.25 615 C 752.125 615 735 597.875 735 576.75 L 735 503.25 C 735 482.125 752.125 465 773.25 465 " clip-rule="nonzero"/></clipPath></defs><g clip-path="url(#6bb8e0b02b)"><g clip-path="url(#e79b2be9f8)"><path fill="#a35c32" d="M 735 465 L 885 465 L 885 615 L 735 615 Z M 735 465 " fill-opacity="1" fill-rule="nonzero"/></g></g><g fill="#ffffff" fill-opacity="1"><g transform="translate(773.713846, 577.641076)"><g><path d="M 6.90625 -68.9375 L 32.359375 -68.9375 C 39.222656 -68.9375 44.398438 -68.226562 47.890625 -66.8125 C 51.390625 -65.40625 54.425781 -63.160156 57 -60.078125 C 59.570312 -56.992188 61.5 -53.359375 62.78125 -49.171875 C 64.0625 -44.984375 64.703125 -39.863281 64.703125 -33.8125 C 64.703125 -28.988281 64.1875 -24.71875 63.15625 -21 C 62.125 -17.28125 60.660156 -13.992188 58.765625 -11.140625 C 56.867188 -8.285156 54.648438 -6.066406 52.109375 -4.484375 C 49.566406 -2.898438 46.867188 -1.753906 44.015625 -1.046875 C 41.160156 -0.347656 37.539062 0 33.15625 0 L 6.90625 0 Z M 20.875 -57.328125 L 20.875 -11.65625 L 31.328125 -11.65625 C 35.148438 -11.65625 37.9375 -11.847656 39.6875 -12.234375 C 41.914062 -12.828125 43.789062 -13.796875 45.3125 -15.140625 C 46.832031 -16.492188 48.050781 -18.703125 48.96875 -21.765625 C 49.894531 -24.835938 50.359375 -29.039062 50.359375 -34.375 C 50.359375 -38.925781 50.019531 -42.570312 49.34375 -45.3125 C 48.675781 -48.050781 47.597656 -50.335938 46.109375 -52.171875 C 44.617188 -54.003906 42.675781 -55.320312 40.28125 -56.125 C 37.882812 -56.925781 33.519531 -57.328125 27.1875 -57.328125 Z M 20.875 -57.328125 "/></g></g></g></svg>