<svg xmlns="http://www.w3.org/2000/svg" xmlns:xlink="http://www.w3.org/1999/xlink" width="1920" zoomAndPan="magnify" viewBox="0 0 1440 809.999993" height="1080" preserveAspectRatio="xMidYMid meet" version="1.0"><defs><g/><clipPath id="a2a8e11fdd"><path d="M 570 465 L 720 465 L 720 615 L 570 615 Z M 570 465 " clip-rule="nonzero"/></clipPath><clipPath id="27ca5a86c5"><path d="M 608.25 465 L 681.75 465 C 702.875 465 720 482.125 720 503.25 L 720 576.75 C 720 597.875 702.875 615 681.75 615 L 608.25 615 C 587.125 615 570 597.875 570 576.75 L 570 503.25 C 570 482.125 587.125 465 608.25 465 " clip-rule="nonzero"/></clipPath></defs><g clip-path="url(#a2a8e11fdd)"><g clip-path="url(#27ca5a86c5)"><path fill="#a35c32" d="M 570 465 L 720 465 L 720 615 L 570 615 Z M 570 465 " fill-opacity="1" fill-rule="nonzero"/></g></g><g fill="#ffffff" fill-opacity="1"><g transform="translate(611.376311, 577.641196)"><g><path d="M 3.484375 -22.4375 L 17.03125 -23.796875 C 17.8125 -19.222656 19.453125 -15.859375 21.953125 -13.703125 C 24.460938 -11.554688 27.835938 -10.484375 32.078125 -10.484375 C 36.554688 -10.484375 39.9375 -11.429688 42.21875 -13.328125 C 44.507812 -15.222656 45.65625 -17.457031 45.65625 -20.03125 C 45.65625 -21.632812 45.171875 -23.015625 44.203125 -24.171875 C 43.234375 -25.328125 41.570312 -26.332031 39.21875 -27.1875 C 37.53125 -27.75 33.800781 -28.734375 28.03125 -30.140625 C 20.5625 -31.992188 15.328125 -34.269531 12.328125 -36.96875 C 8.085938 -40.757812 5.96875 -45.382812 5.96875 -50.84375 C 5.96875 -54.382812 6.960938 -57.679688 8.953125 -60.734375 C 10.941406 -63.796875 13.816406 -66.125 17.578125 -67.71875 C 21.347656 -69.320312 25.863281 -70.125 31.125 -70.125 C 39.78125 -70.125 46.296875 -68.222656 50.671875 -64.421875 C 55.046875 -60.628906 57.359375 -55.566406 57.609375 -49.234375 L 43.640625 -48.625 C 43.046875 -52.164062 41.769531 -54.703125 39.8125 -56.234375 C 37.851562 -57.773438 34.910156 -58.546875 30.984375 -58.546875 C 27.535156 -58.546875 24.722656 -57.957031 22.546875 -56.78125 C 20.367188 -55.601562 19.28125 -53.953125 19.28125 -51.828125 C 19.28125 -50.222656 19.984375 -48.84375 21.390625 -47.6875 C 23.117188 -46.207031 27.367188 -44.660156 34.140625 -43.046875 C 40.910156 -41.429688 45.914062 -39.773438 49.15625 -38.078125 C 52.40625 -36.390625 54.945312 -34.050781 56.78125 -31.0625 C 58.613281 -28.070312 59.53125 -24.394531 59.53125 -20.03125 C 59.53125 -16.113281 58.429688 -12.4375 56.234375 -9 C 54.046875 -5.570312 50.941406 -3.003906 46.921875 -1.296875 C 42.910156 0.410156 37.929688 1.265625 31.984375 1.265625 C 14.765625 1.265625 5.265625 -6.632812 3.484375 -22.4375 Z M 3.484375 -22.4375 "/></g></g></g></svg>