<svg xmlns="http://www.w3.org/2000/svg" xmlns:xlink="http://www.w3.org/1999/xlink" width="1920" zoomAndPan="magnify" viewBox="0 0 1440 809.999993" height="1080" preserveAspectRatio="xMidYMid meet" version="1.0"><defs><g/><clipPath id="78b624a4a2"><path d="M 570 300 L 720 300 L 720 450 L 570 450 Z M 570 300 " clip-rule="nonzero"/></clipPath><clipPath id="cd63755794"><path d="M 608.25 300 L 681.75 300 C 702.875 300 720 317.125 720 338.25 L 720 411.75 C 720 432.875 702.875 450 681.75 450 L 608.25 450 C 587.125 450 570 432.875 570 411.75 L 570 338.25 C 570 317.125 587.125 300 608.25 300 " clip-rule="nonzero"/></clipPath></defs><g clip-path="url(#78b624a4a2)"><g clip-path="url(#cd63755794)"><path fill="#a35c32" d="M 570 300 L 720 300 L 720 450 L 570 450 Z M 570 300 " fill-opacity="1" fill-rule="nonzero"/></g></g><g fill="#ffffff" fill-opacity="1"><g transform="translate(598.039488, 412.640936)"><g><path d="M 16.734375 0 L 0.28125 -68.9375 L 14.53125 -68.9375 L 24.921875 -21.578125 L 37.578125 -68.9375 L 54.125 -68.9375 L 66.171875 -20.78125 L 76.75 -68.9375 L 90.8125 -68.9375 L 74.0625 0 L 59.34375 0 L 45.5625 -51.546875 L 31.890625 0 Z M 16.734375 0 "/></g></g></g></svg>