<svg xmlns="http://www.w3.org/2000/svg" xmlns:xlink="http://www.w3.org/1999/xlink" width="1920" zoomAndPan="magnify" viewBox="0 0 1440 809.999993" height="1080" preserveAspectRatio="xMidYMid meet" version="1.0"><defs><clipPath id="b680466a92"><path d="M 1065.585938 465 L 1215.585938 465 L 1215.585938 615 L 1065.585938 615 Z M 1065.585938 465 " clip-rule="nonzero"/></clipPath><clipPath id="4265aa98fd"><path d="M 1103.835938 465 L 1177.335938 465 C 1198.460938 465 1215.585938 482.125 1215.585938 503.25 L 1215.585938 576.75 C 1215.585938 597.875 1198.460938 615 1177.335938 615 L 1103.835938 615 C 1082.710938 615 1065.585938 597.875 1065.585938 576.75 L 1065.585938 503.25 C 1065.585938 482.125 1082.710938 465 1103.835938 465 " clip-rule="nonzero"/></clipPath><clipPath id="efbf1b4594"><path d="M 1113.730469 496.332031 L 1167.4375 496.332031 L 1167.4375 584.832031 L 1113.730469 584.832031 Z M 1113.730469 496.332031 " clip-rule="nonzero"/></clipPath></defs><g clip-path="url(#b680466a92)"><g clip-path="url(#4265aa98fd)"><path fill="#a35c32" d="M 1065.585938 465 L 1215.585938 465 L 1215.585938 615 L 1065.585938 615 Z M 1065.585938 465 " fill-opacity="1" fill-rule="nonzero"/></g></g><g clip-path="url(#efbf1b4594)"><path fill="#fefcfb" d="M 1139.960938 584.195312 L 1114.222656 548.074219 C 1113.828125 547.527344 1113.785156 546.839844 1114.09375 546.234375 C 1114.242188 545.953125 1114.6875 545.300781 1115.632812 545.300781 L 1129.726562 545.300781 C 1130.597656 545.300781 1131.308594 544.59375 1131.308594 543.730469 L 1131.308594 498.109375 C 1131.308594 497.242188 1132.019531 496.535156 1132.890625 496.535156 L 1148.726562 496.535156 C 1149.601562 496.535156 1150.3125 497.242188 1150.3125 498.109375 L 1150.3125 543.730469 C 1150.3125 544.59375 1151.023438 545.300781 1151.894531 545.300781 L 1165.988281 545.300781 C 1166.933594 545.300781 1167.378906 545.953125 1167.527344 546.234375 C 1167.84375 546.839844 1167.785156 547.527344 1167.398438 548.078125 L 1141.65625 584.195312 C 1141.371094 584.585938 1140.972656 584.628906 1140.808594 584.628906 C 1140.648438 584.628906 1140.246094 584.585938 1139.960938 584.195312 " fill-opacity="1" fill-rule="nonzero"/></g></svg>