<svg xmlns="http://www.w3.org/2000/svg" xmlns:xlink="http://www.w3.org/1999/xlink" width="1920" zoomAndPan="magnify" viewBox="0 0 1440 809.999993" height="1080" preserveAspectRatio="xMidYMid meet" version="1.0"><defs><clipPath id="195a6086cc"><path d="M 1230.585938 465 L 1380.585938 465 L 1380.585938 615 L 1230.585938 615 Z M 1230.585938 465 " clip-rule="nonzero"/></clipPath><clipPath id="61f9e49931"><path d="M 1268.835938 465 L 1342.335938 465 C 1363.460938 465 1380.585938 482.125 1380.585938 503.25 L 1380.585938 576.75 C 1380.585938 597.875 1363.460938 615 1342.335938 615 L 1268.835938 615 C 1247.710938 615 1230.585938 597.875 1230.585938 576.75 L 1230.585938 503.25 C 1230.585938 482.125 1247.710938 465 1268.835938 465 " clip-rule="nonzero"/></clipPath><clipPath id="41a287db2f"><path d="M 1261.386719 513.140625 L 1349.78125 513.140625 L 1349.78125 566.847656 L 1261.386719 566.847656 Z M 1261.386719 513.140625 " clip-rule="nonzero"/></clipPath></defs><g clip-path="url(#195a6086cc)"><g clip-path="url(#61f9e49931)"><path fill="#a35c32" d="M 1230.585938 465 L 1380.585938 465 L 1380.585938 615 L 1230.585938 615 Z M 1230.585938 465 " fill-opacity="1" fill-rule="nonzero"/></g></g><g clip-path="url(#41a287db2f)"><path fill="#fefcfb" d="M 1349.140625 539.371094 L 1313.023438 513.632812 C 1312.476562 513.238281 1311.789062 513.195312 1311.183594 513.503906 C 1310.902344 513.652344 1310.25 514.097656 1310.25 515.042969 L 1310.25 529.136719 C 1310.25 530.007812 1309.542969 530.71875 1308.679688 530.71875 L 1263.058594 530.71875 C 1262.191406 530.71875 1261.484375 531.429688 1261.484375 532.300781 L 1261.484375 548.136719 C 1261.484375 549.011719 1262.191406 549.722656 1263.058594 549.722656 L 1308.679688 549.722656 C 1309.542969 549.722656 1310.25 550.433594 1310.25 551.304688 L 1310.25 565.398438 C 1310.25 566.34375 1310.902344 566.789062 1311.183594 566.9375 C 1311.789062 567.253906 1312.476562 567.195312 1313.027344 566.808594 L 1349.140625 541.066406 C 1349.535156 540.785156 1349.578125 540.382812 1349.578125 540.21875 C 1349.578125 540.058594 1349.535156 539.65625 1349.140625 539.371094 " fill-opacity="1" fill-rule="nonzero"/></g></svg>