<svg xmlns="http://www.w3.org/2000/svg" xmlns:xlink="http://www.w3.org/1999/xlink" width="1920" zoomAndPan="magnify" viewBox="0 0 1440 809.999993" height="1080" preserveAspectRatio="xMidYMid meet" version="1.0"><defs><clipPath id="56ca477f4d"><path d="M 900.585938 465 L 1050.585938 465 L 1050.585938 615 L 900.585938 615 Z M 900.585938 465 " clip-rule="nonzero"/></clipPath><clipPath id="b250c04960"><path d="M 938.835938 465 L 1012.335938 465 C 1033.460938 465 1050.585938 482.125 1050.585938 503.25 L 1050.585938 576.75 C 1050.585938 597.875 1033.460938 615 1012.335938 615 L 938.835938 615 C 917.710938 615 900.585938 597.875 900.585938 576.75 L 900.585938 503.25 C 900.585938 482.125 917.710938 465 938.835938 465 " clip-rule="nonzero"/></clipPath><clipPath id="5f29974cfe"><path d="M 931.386719 513.78125 L 1019.886719 513.78125 L 1019.886719 567.488281 L 931.386719 567.488281 Z M 931.386719 513.78125 " clip-rule="nonzero"/></clipPath></defs><g clip-path="url(#56ca477f4d)"><g clip-path="url(#b250c04960)"><path fill="#a35c32" d="M 900.585938 465 L 1050.585938 465 L 1050.585938 615 L 900.585938 615 Z M 900.585938 465 " fill-opacity="1" fill-rule="nonzero"/></g></g><g clip-path="url(#5f29974cfe)"><path fill="#fefcfb" d="M 932.027344 540.011719 L 968.144531 514.273438 C 968.691406 513.878906 969.382812 513.835938 969.984375 514.144531 C 970.265625 514.292969 970.917969 514.738281 970.917969 515.683594 L 970.917969 529.777344 C 970.917969 530.648438 971.625 531.359375 972.492188 531.359375 L 1018.109375 531.359375 C 1018.976562 531.359375 1019.683594 532.070312 1019.683594 532.941406 L 1019.683594 548.777344 C 1019.683594 549.652344 1018.976562 550.363281 1018.109375 550.363281 L 972.492188 550.363281 C 971.625 550.363281 970.917969 551.074219 970.917969 551.945312 L 970.917969 566.039062 C 970.917969 566.984375 970.265625 567.429688 969.984375 567.578125 C 969.382812 567.894531 968.691406 567.835938 968.140625 567.449219 L 932.027344 541.707031 C 931.632812 541.425781 931.589844 541.023438 931.589844 540.859375 C 931.589844 540.699219 931.632812 540.296875 932.027344 540.011719 " fill-opacity="1" fill-rule="nonzero"/></g></svg>