<svg xmlns="http://www.w3.org/2000/svg" xmlns:xlink="http://www.w3.org/1999/xlink" width="1920" zoomAndPan="magnify" viewBox="0 0 1440 809.999993" height="1080" preserveAspectRatio="xMidYMid meet" version="1.0"><defs><clipPath id="2abbc431f2"><path d="M 1065.585938 300 L 1215.585938 300 L 1215.585938 450 L 1065.585938 450 Z M 1065.585938 300 " clip-rule="nonzero"/></clipPath><clipPath id="d81826f268"><path d="M 1103.835938 300 L 1177.335938 300 C 1198.460938 300 1215.585938 317.125 1215.585938 338.25 L 1215.585938 411.75 C 1215.585938 432.875 1198.460938 450 1177.335938 450 L 1103.835938 450 C 1082.710938 450 1065.585938 432.875 1065.585938 411.75 L 1065.585938 338.25 C 1065.585938 317.125 1082.710938 300 1103.835938 300 " clip-rule="nonzero"/></clipPath><clipPath id="94f75e5165"><path d="M 1111.9375 331 L 1165.9375 331 L 1165.9375 419.191406 L 1111.9375 419.191406 Z M 1111.9375 331 " clip-rule="nonzero"/></clipPath></defs><g clip-path="url(#2abbc431f2)"><g clip-path="url(#d81826f268)"><path fill="#a35c32" d="M 1065.585938 300 L 1215.585938 300 L 1215.585938 450 L 1065.585938 450 Z M 1065.585938 300 " fill-opacity="1" fill-rule="nonzero"/></g></g><g clip-path="url(#94f75e5165)"><path fill="#fefcfb" d="M 1139.707031 331.4375 L 1165.445312 367.558594 C 1165.839844 368.105469 1165.882812 368.792969 1165.574219 369.394531 C 1165.425781 369.675781 1164.980469 370.328125 1164.035156 370.328125 L 1149.945312 370.328125 C 1149.070312 370.328125 1148.359375 371.035156 1148.359375 371.902344 L 1148.359375 417.523438 C 1148.359375 418.386719 1147.648438 419.09375 1146.777344 419.09375 L 1130.941406 419.09375 C 1130.070312 419.09375 1129.355469 418.386719 1129.355469 417.523438 L 1129.355469 371.902344 C 1129.355469 371.035156 1128.644531 370.328125 1127.773438 370.328125 L 1113.683594 370.328125 C 1112.734375 370.328125 1112.289062 369.675781 1112.140625 369.394531 C 1111.828125 368.792969 1111.882812 368.105469 1112.273438 367.550781 L 1138.011719 331.4375 C 1138.296875 331.042969 1138.699219 331 1138.859375 331 C 1139.019531 331 1139.421875 331.042969 1139.707031 331.4375 " fill-opacity="1" fill-rule="nonzero"/></g></svg>